<?xml version="1.0" standalone="no"?>
<!DOCTYPE svg PUBLIC "-//W3C//DTD SVG 20010904//EN"
 "http://www.w3.org/TR/2001/REC-SVG-20010904/DTD/svg10.dtd">
<svg version="1.0" xmlns="http://www.w3.org/2000/svg"
 width="1144.000000pt" height="1144.000000pt" viewBox="0 0 1144.000000 1144.000000"
 preserveAspectRatio="xMidYMid meet">
<metadata>
Created by potrace 1.11, written by Peter Selinger 2001-2013
</metadata>
<g transform="translate(0.000000,1144.000000) scale(0.100000,-0.100000)"
fill="#000000" stroke="none">
<path d="M0 5715 l0 -3215 590 0 590 0 0 1491 0 1491 1488 -1492 1487 -1491
717 3 716 3 -1624 1665 -1625 1665 1553 1547 1553 1547 -707 1 -706 0 -1426
-1432 -1426 -1433 0 1433 0 1432 -590 0 -590 0 0 -3215z"/>
<path d="M6010 5715 l0 -3215 550 0 550 0 2 2237 3 2238 1718 -2238 1718
-2237 445 0 444 0 0 3215 0 3215 -555 0 -555 0 -2 -2228 -3 -2228 -1715 2228
-1714 2228 -443 0 -443 0 0 -3215z"/>
</g>
</svg>
